PathFileType	4	(X/Y/Z)	RBDS026static.trc
DataRate	CameraRate	NumFrames	NumMarkers	Units	OrigDataRate	OrigDataStartFrame	OrigNumFrames
150.000000	150.000000	4	48	mm	150.000000	18	150
Frame#	Time	L.Ankle			L.Ankle.Medial			L.ASIS			L.GTR			L.Heel.Bottom			L.Heel.Lateral			L.Heel.Top			L.HF			L.Iliac.Crest			L.Knee			L.Knee.Medial			L.MT1			L.MT2			L.MT5			L.PSIS			L.Shank.Bottom.Lateral			L.Shank.Bottom.Medial			L.Shank.Top.Lateral			L.Shank.Top.Medial			L.Thigh.Bottom.Lateral			L.Thigh.Bottom.Medial			L.Thigh.Top.Lateral			L.Thigh.Top.Medial			L.TT			R.Ankle			R.Ankle.Medial			R.ASIS			R.GTR			R.Heel.Bottom			R.Heel.Lateral			R.Heel.Top			R.HF			R.Iliac.Crest			R.Knee			R.Knee.Medial			R.MT1			R.MT2			R.MT5			R.PSIS			R.Shank.Bottom.Lateral			R.Shank.Bottom.Medial			R.Shank.Top.Lateral			R.Shank.Top.Medial			R.Thigh.Bottom.Lateral			R.Thigh.Bottom.Medial			R.Thigh.Top.Lateral			R.Thigh.Top.Medial			R.TT			
		X1	Y1	Z1	X2	Y2	Z2	X3	Y3	Z3	X4	Y4	Z4	X5	Y5	Z5	X6	Y6	Z6	X7	Y7	Z7	X8	Y8	Z8	X9	Y9	Z9	X10	Y10	Z10	X11	Y11	Z11	X12	Y12	Z12	X13	Y13	Z13	X14	Y14	Z14	X15	Y15	Z15	X16	Y16	Z16	X17	Y17	Z17	X18	Y18	Z18	X19	Y19	Z19	X20	Y20	Z20	X21	Y21	Z21	X22	Y22	Z22	X23	Y23	Z23	X24	Y24	Z24	X25	Y25	Z25	X26	Y26	Z26	X27	Y27	Z27	X28	Y28	Z28	X29	Y29	Z29	X30	Y30	Z30	X31	Y31	Z31	X32	Y32	Z32	X33	Y33	Z33	X34	Y34	Z34	X35	Y35	Z35	X36	Y36	Z36	X37	Y37	Z37	X38	Y38	Z38	X39	Y39	Z39	X40	Y40	Z40	X41	Y41	Z41	X42	Y42	Z42	X43	Y43	Z43	X44	Y44	Z44	X45	Y45	Z45	X46	Y46	Z46	X47	Y47	Z47	X48	Y48	Z48	

19	0.12	708.1277465820313	106.7969589233398	1038.230712890625	735.59326171875	119.2725067138672	1122.634399414063	877.1575317382813	1063.84716796875	1114.9140625	808.3267822265625	965.842041015625	1051.867553710938	640.0006713867188	41.14883041381836	1080.97900390625	675.753173828125	62.70168304443359	1035.86962890625	649.3468017578125	88.62783813476563	1082.27197265625	786.1497802734375	488.8742370605469	1026.384399414063	794.017333984375	1138.524047851563	1072.021484375	803.7975463867188	545.3914794921875	1036.255859375	790.942626953125	528.2478637695313	1157.957885742188	864.7590942382813	57.90596008300781	1122.374755859375	868.6522216796875	68.3499755859375	1077.9306640625	828.5724487304688	50.49322128295898	1012.082153320313	702.2824096679688	1105.862915039063	1185.998168945313	730.9671020507813	186.2400054931641	1029.289794921875	685.751953125	194.7979888916016	1051.905029296875	741.3130493164063	264.4234008789063	1011.44140625	694.034423828125	277.1550903320313	1033.53759765625	787.3756103515625	666.2157592773438	1029.322875976563	726.1383666992188	665.0238647460938	1069.09765625	779.9339599609375	776.2392578125	1023.794982910156	724.4159545898438	774.1268310546875	1066.468139648438	841.5062255859375	458.0780639648438	1071.9619140625	709.8233032226563	104.2112731933594	1418.591430664063	735.281982421875	122.1370849609375	1332.564086914063	875.32568359375	1068.932373046875	1353.44970703125	804.51708984375	961.7041625976563	1415.886596679688	639.3539428710938	41.93337249755859	1371.227416992188	671.2749633789063	62.33986282348633	1416.615844726563	647.9555053710938	87.94803619384766	1370.747436523438	779.5006103515625	485.196533203125	1442.164672851563	804.763916015625	1131.459106445313	1394.741821289063	797.3484497070313	538.0892944335938	1433.442504882813	801.4469604492188	526.1670532226563	1312.355346679688	863.7427368164063	60.55727767944336	1332.908447265625	870.4943237304688	71.23487091064453	1379.357666015625	834.9089965820313	50.5042610168457	1444.147705078125	704.5302734375	1106.081665039063	1286.572143554688	725.3169555664063	178.8599548339844	1429.334716796875	678.4319458007813	185.6755676269531	1400.281005859375	724.6386108398438	258.2048645019531	1447.336181640625	679.2255859375	264.1169738769531	1418.203369140625	801.2732543945313	647.4019775390625	1441.250366210938	736.063720703125	647.3716430664063	1409.9912109375	799.7993774414063	757.9896850585938	1442.84765625	737.252197265625	757.2949829101563	1414.004150390625	840.4269409179688	458.600830078125	1392.525390625	
20	0.1266666666666667	708.1314086914063	106.7932815551758	1038.234741210938	735.593505859375	119.2632369995117	1122.649291992188	877.145751953125	1063.8505859375	1114.916015625	808.317138671875	965.8512573242188	1051.863525390625	640.0093994140625	41.14801788330078	1080.978393554688	675.7491455078125	62.70369720458984	1035.86962890625	649.35595703125	88.63041687011719	1082.274291992188	786.1416625976563	488.8759460449219	1026.384765625	794.0316772460938	1138.523193359375	1072.018310546875	803.8004150390625	545.3956909179688	1036.260131835938	790.9415283203125	528.2572021484375	1157.961303710938	864.8085327148438	57.98149108886719	1122.423095703125	868.6553955078125	68.35105133056641	1077.93408203125	828.5700073242188	50.48836898803711	1012.086730957031	702.2760009765625	1105.88037109375	1185.986206054688	730.965087890625	186.2424163818359	1029.297241210938	685.7505493164063	194.7936706542969	1051.916015625	741.3115234375	264.4315490722656	1011.44287109375	694.0330200195313	277.156982421875	1033.538330078125	787.3500366210938	666.201416015625	1029.317749023438	726.1314697265625	665.0286865234375	1069.081787109375	779.9337768554688	776.2407836914063	1023.794128417969	724.4073486328125	774.1260986328125	1066.460571289063	841.5037841796875	458.0900268554688	1071.96240234375	709.8237915039063	104.2142715454102	1418.589111328125	735.2755737304688	122.1308059692383	1332.563110351563	875.31298828125	1068.942626953125	1353.44775390625	804.4874877929688	961.712890625	1415.876098632813	639.3472290039063	41.93227767944336	1371.2177734375	671.268310546875	62.34212112426758	1416.610717773438	647.9506225585938	87.95398712158203	1370.755615234375	779.4579467773438	485.1986083984375	1442.166381835938	804.74169921875	1131.478393554688	1394.730834960938	797.3130493164063	538.0883178710938	1433.440185546875	801.4413452148438	526.1603393554688	1312.360107421875	863.7394409179688	60.56252670288086	1332.909423828125	870.4986572265625	71.23497772216797	1379.357666015625	834.9105224609375	50.50136184692383	1444.144409179688	704.5037231445313	1106.089599609375	1286.550415039063	725.3087768554688	178.8582611083984	1429.338134765625	678.4220581054688	185.6731262207031	1400.2626953125	724.6162109375	258.197509765625	1447.330932617188	679.215576171875	264.1157836914063	1418.204833984375	801.2303466796875	647.39599609375	1441.244018554688	736.0282592773438	647.3754272460938	1409.995239257813	799.7681884765625	757.9877319335938	1442.843139648438	737.208740234375	757.29833984375	1413.993896484375	840.3952026367188	458.6016235351563	1392.537719726563	
21	0.1333333333333333	708.13720703125	106.7993392944336	1038.258056640625	735.5872192382813	119.2717971801758	1122.642822265625	877.102783203125	1063.830200195313	1114.763427734375	808.3262939453125	965.8552856445313	1051.866455078125	640.00537109375	41.1513786315918	1080.975952148438	675.7564697265625	62.70479202270508	1035.866333007813	649.3548583984375	88.63900756835938	1082.273193359375	786.1456909179688	488.8833618164063	1026.399169921875	794.05712890625	1138.536499023438	1072.010498046875	803.8052978515625	545.404541015625	1036.258056640625	790.9451904296875	528.2554931640625	1157.970581054688	864.8140869140625	57.98291015625	1122.422241210938	868.65478515625	68.359375	1077.930908203125	828.5755004882813	50.48945236206055	1012.08837890625	702.2730102539063	1105.890380859375	1185.975219726563	730.9671020507813	186.2507019042969	1029.300048828125	685.7597045898438	194.8023529052734	1051.921997070313	741.3104858398438	264.4417114257813	1011.446899414063	694.0408325195313	277.1671142578125	1033.54931640625	787.3511352539063	666.1986694335938	1029.310546875	726.1347045898438	665.0313110351563	1069.073486328125	779.93505859375	776.2430419921875	1023.7822265625	724.4068603515625	774.1163940429688	1066.426391601563	841.5089721679688	458.0995788574219	1071.982666015625	709.8359375	104.2075119018555	1418.584716796875	735.2786254882813	122.1344223022461	1332.57373046875	875.2988891601563	1068.946166992188	1353.453491210938	804.4610595703125	961.7145385742188	1415.882690429688	639.3515014648438	41.93814849853516	1371.227905273438	671.2701416015625	62.33888626098633	1416.605346679688	647.9515380859375	87.94173431396484	1370.751708984375	779.4435424804688	485.2070922851563	1442.162475585938	804.7220458984375	1131.505249023438	1394.724975585938	797.2792358398438	538.0970458984375	1433.44775390625	801.4032592773438	526.1798706054688	1312.361572265625	863.7440185546875	60.5643310546875	1332.92431640625	870.49462890625	71.24077606201172	1379.369750976563	834.9181518554688	50.5090446472168	1444.14990234375	704.49560546875	1106.10302734375	1286.543090820313	725.2957763671875	178.8526763916016	1429.335571289063	678.4092407226563	185.6701812744141	1400.269653320313	724.6090698242188	258.196044921875	1447.335693359375	679.205078125	264.1131286621094	1418.201538085938	801.2015991210938	647.3975219726563	1441.238159179688	735.9918212890625	647.3790283203125	1409.978637695313	799.7269897460938	757.9899291992188	1442.839477539063	737.178466796875	757.2980346679688	1413.990112304688	840.3787841796875	458.6160888671875	1392.540161132813	
22	0.14	708.1392211914063	106.8053207397461	1038.23583984375	735.588134765625	119.1079406738281	1122.326782226563	877.1083374023438	1063.843872070313	1114.77001953125	808.3289184570313	965.8628540039063	1051.86474609375	640.0076904296875	41.14477920532227	1080.976440429688	675.7510375976563	62.71334457397461	1035.87060546875	649.3538818359375	88.63874053955078	1082.274169921875	786.145751953125	488.8830261230469	1026.388427734375	794.0838012695313	1138.55419921875	1072.013793945313	803.8108520507813	545.4003295898438	1036.249389648438	790.9424438476563	528.2655029296875	1157.969116210938	864.7783203125	57.92327880859375	1122.382934570313	868.6533813476563	68.35997009277344	1077.936401367188	828.5869140625	50.48818206787109	1012.099243164063	702.260986328125	1105.900268554688	1185.953125	730.97509765625	186.2550964355469	1029.29345703125	685.7636108398438	194.8088836669922	1051.92626953125	741.311767578125	264.4514770507813	1011.442749023438	694.0357666015625	277.1683044433594	1033.5458984375	787.4027709960938	666.2317504882813	1029.303588867188	726.1370849609375	665.0323486328125	1069.038330078125	779.93701171875	776.2464599609375	1023.768249511719	724.4051513671875	774.1168823242188	1066.396606445313	841.524658203125	458.1217651367188	1071.999755859375	709.822021484375	104.202751159668	1418.582397460938	735.256103515625	122.0490951538086	1332.503051757813	875.2701416015625	1068.952392578125	1353.464721679688	804.4313354492188	961.7197265625	1415.868530273438	639.35400390625	41.9324836730957	1371.222778320313	671.2687377929688	62.34280014038086	1416.607666015625	647.9461669921875	87.95356750488281	1370.75830078125	779.4046630859375	485.2054443359375	1442.159301757813	804.6982421875	1131.521362304688	1394.71875	797.2438354492188	538.1008911132813	1433.439697265625	801.4000244140625	526.1763305664063	1312.370483398438	863.735595703125	60.56703186035156	1332.910278320313	870.4934692382813	71.24095153808594	1379.356689453125	834.8978881835938	50.51288986206055	1444.14794921875	704.4785766601563	1106.11572265625	1286.542724609375	725.2908325195313	178.86279296875	1429.337158203125	678.4108276367188	185.66357421875	1400.272705078125	724.5885009765625	258.1907348632813	1447.322021484375	679.1947021484375	264.1056213378906	1418.198364257813	801.1631469726563	647.4109497070313	1441.228515625	735.962646484375	647.3729858398438	1409.973510742188	799.6950073242188	757.9981079101563	1442.839477539063	737.14501953125	757.3010864257813	1413.980590820313	840.3712158203125	458.6247253417969	1392.54150390625	
